# xmcd
#
# Track frame offsets: 
#        150
#        12160
#        21199
#        32132
#        41762
#        50794
#        61005
#        71583
#        80914
#        90061
#        99927
#        110160
#        122001
#        132589
#        150861
#        161085
#
# Disc length: 2270 seconds
#
# Revision: 0
# Processed by: cddbd v1.5.2PL0 Copyright (c) Steve Scherf et al.
# Submitted via: ExactAudioCopy v0.99pb3
#
DISCID=cc08dc10
DTITLE=Various Artist - Mandolin Mania
DYEAR=1900
DGENRE=Country
TTITLE0=Royal Princess Two Step
TTITLE1=Angus Campbell
TTITLE2=Crystal Waltz
TTITLE3=Cherry Pink and Apple Blossom White
TTITLE4=Pinetree Jig
TTITLE5=Waltzing Through The Leaves
TTITLE6=Blue Spanish Eyes
TTITLE7=Honey Harbor Two Step
TTITLE8=San Antonio Rose
TTITLE9=Blue eyes Crying in the Rain
TTITLE10=No Letter Today
TTITLE11=Tennessee Waltz
TTITLE12=Mexicali Rose
TTITLE13=St. Louis Blues
TTITLE14=In a Little Spanish Town
TTITLE15=Nobody's Darling But Mine
EXTD=
EXTT0=
EXTT1=
EXTT2=
EXTT3=
EXTT4=
EXTT5=
EXTT6=
EXTT7=
EXTT8=
EXTT9=
EXTT10=
EXTT11=
EXTT12=
EXTT13=
EXTT14=
EXTT15=
PLAYORDER=
